<svg width="324" height="12" viewBox="0 0 324 12" fill="none" xmlns="http://www.w3.org/2000/svg">
<path d="M324 0H0V12H324V0Z" fill="#F0F0F0"/>
<path d="M11 8C12.1046 8 13 7.10457 13 6C13 4.89543 12.1046 4 11 4C9.89543 4 9 4.89543 9 6C9 7.10457 9.89543 8 11 8Z" fill="black"/>
<path d="M21 8C22.1046 8 23 7.10457 23 6C23 4.89543 22.1046 4 21 4C19.8954 4 19 4.89543 19 6C19 7.10457 19.8954 8 21 8Z" fill="black"/>
<path d="M31 8C32.1046 8 33 7.10457 33 6C33 4.89543 32.1046 4 31 4C29.8954 4 29 4.89543 29 6C29 7.10457 29.8954 8 31 8Z" fill="black"/>
</svg>
